<?xml version="1.0" standalone="no"?>
<!DOCTYPE svg PUBLIC "-//W3C//DTD SVG 20010904//EN"
 "http://www.w3.org/TR/2001/REC-SVG-20010904/DTD/svg10.dtd">
<svg version="1.0" xmlns="http://www.w3.org/2000/svg"
 width="261.000000pt" height="52.000000pt" viewBox="0 0 261.000000 52.000000"
 preserveAspectRatio="xMidYMid meet">

<g transform="translate(0.000000,52.000000) scale(0.100000,-0.100000)"
fill="#000000" stroke="none">
<path d="M130 511 c0 -6 3 -12 8 -15 4 -2 39 -54 77 -115 l69 -111 74 0 74 0
-14 23 c-8 12 -43 68 -78 125 l-63 102 -74 0 c-40 0 -73 -4 -73 -9z"/>
<path d="M33 452 c-21 -7 -20 -11 35 -94 l56 -88 58 0 57 0 -61 95 c-56 88
-63 95 -92 94 -17 -1 -41 -4 -53 -7z"/>
<path d="M613 410 c-41 -25 -53 -48 -53 -104 0 -61 37 -105 96 -113 50 -6 114
12 114 34 0 11 -5 13 -17 8 -66 -29 -128 -16 -150 30 -14 29 -14 41 -4 74 6
23 21 46 33 52 21 11 87 8 121 -6 12 -5 17 -2 17 8 0 18 -49 37 -94 37 -17 0
-45 -9 -63 -20z"/>
<path d="M820 310 l0 -120 75 0 c60 0 75 3 75 15 0 12 -13 15 -60 15 l-60 0 0
105 c0 87 -3 105 -15 105 -12 0 -15 -20 -15 -120z"/>
<path d="M1070 408 c-28 -68 -80 -203 -80 -210 0 -4 6 -8 14 -8 8 0 20 16 27
35 13 34 14 35 67 35 51 0 54 -1 68 -35 8 -19 21 -35 30 -35 18 0 18 -2 -35
135 -30 79 -43 101 -60 103 -14 2 -24 -4 -31 -20z m44 -50 c32 -77 31 -78 -13
-78 -23 0 -41 3 -41 8 0 11 33 102 37 102 2 0 10 -15 17 -32z"/>
<path d="M1250 311 c0 -101 2 -121 15 -121 11 0 15 12 15 50 0 44 3 50 20 50
12 0 41 -21 67 -50 25 -28 55 -50 66 -50 16 0 12 9 -25 53 l-45 52 23 18 c29
22 32 67 6 90 -11 10 -45 20 -80 23 l-62 7 0 -122z m114 73 c9 -8 16 -20 16
-25 0 -20 -41 -49 -70 -49 -29 0 -30 2 -30 45 0 45 0 45 34 45 19 0 42 -7 50
-16z"/>
<path d="M1460 335 c0 -88 2 -98 25 -120 24 -25 81 -34 120 -19 30 12 45 60
45 149 0 69 -3 85 -15 85 -12 0 -15 -15 -15 -77 0 -101 -13 -127 -65 -131 -56
-5 -65 13 -65 120 0 72 -3 88 -15 88 -12 0 -15 -17 -15 -95z"/>
<path d="M1706 409 c-33 -26 -35 -71 -4 -93 12 -9 29 -16 38 -16 8 0 32 -5 53
-11 30 -8 37 -15 37 -34 0 -18 -7 -26 -25 -31 -27 -7 -79 -2 -107 11 -14 5
-18 2 -18 -13 0 -42 145 -42 175 1 34 49 10 85 -70 101 -65 13 -87 34 -65 61
10 12 25 16 59 13 25 -3 54 -8 64 -12 12 -6 17 -4 17 8 0 38 -111 49 -154 15z"/>
<path d="M1890 417 c0 -16 58 -218 64 -225 16 -16 36 17 56 93 13 47 26 82 30
78 6 -8 15 -37 40 -130 8 -31 16 -43 29 -43 15 0 25 21 50 113 36 129 35 127
17 127 -9 0 -22 -29 -36 -82 -12 -46 -25 -89 -29 -95 -4 -7 -17 28 -30 77 -34
132 -52 131 -85 -4 -11 -42 -22 -76 -25 -76 -4 0 -15 33 -25 73 -10 39 -23 80
-28 90 -10 20 -28 23 -28 4z"/>
<path d="M2290 410 c-15 -27 -80 -200 -80 -211 0 -24 30 -5 40 26 11 34 13 35
64 35 50 0 53 -2 69 -35 9 -19 24 -35 33 -35 9 0 14 6 11 13 -3 6 -24 60 -48
120 -32 80 -47 107 -60 107 -10 0 -23 -9 -29 -20z m63 -122 c-7 -13 -73 -9
-73 4 0 7 8 32 17 57 l17 45 22 -50 c12 -27 20 -52 17 -56z"/>
<path d="M2410 419 c0 -5 18 -37 40 -69 34 -50 40 -67 40 -109 0 -39 4 -51 15
-51 11 0 15 12 15 51 0 42 6 59 40 109 22 32 40 64 40 69 0 24 -22 8 -56 -39
-20 -27 -37 -50 -39 -50 -2 0 -19 23 -39 50 -34 47 -56 63 -56 39z"/>
<path d="M68 163 c-55 -84 -56 -88 -35 -95 12 -3 36 -6 53 -7 29 -1 36 6 92
94 l61 95 -57 0 -58 0 -56 -87z"/>
<path d="M221 148 c-35 -57 -71 -113 -79 -125 l-14 -23 74 0 75 0 63 103 c35
56 70 112 78 125 l14 22 -74 0 -74 0 -63 -102z"/>
<path d="M696 70 c3 -19 8 -37 10 -39 7 -8 24 12 25 32 1 20 2 19 12 -5 6 -16
14 -28 19 -28 4 0 8 1 8 3 0 1 4 17 9 35 6 20 6 30 0 27 -5 -4 -9 -15 -9 -26
0 -11 -4 -17 -10 -14 -5 3 -10 15 -10 26 0 29 -19 23 -27 -8 l-6 -28 -14 30
-13 30 6 -35z"/>
<path d="M811 69 c-6 -18 -9 -35 -6 -37 3 -3 5 0 5 6 0 7 9 12 20 12 11 0 20
-4 20 -10 0 -5 4 -10 10 -10 11 0 -14 63 -28 68 -5 1 -15 -12 -21 -29z m29 1
c0 -5 -4 -10 -10 -10 -5 0 -10 5 -10 10 0 6 5 10 10 10 6 0 10 -4 10 -10z"/>
<path d="M889 66 c11 -22 17 -28 19 -17 2 9 8 20 13 26 5 5 9 14 9 20 0 5 -7
1 -15 -9 -13 -17 -15 -17 -21 -3 -3 10 -10 17 -14 17 -4 0 0 -15 9 -34z"/>
<path d="M992 93 c10 -2 18 -17 21 -36 l4 -32 1 32 c1 21 8 33 20 36 9 3 -1 5
-23 5 -22 0 -32 -2 -23 -5z"/>
<path d="M1067 93 c-13 -12 -7 -50 9 -64 11 -9 20 -10 32 -2 21 13 22 65 2 70
-12 4 -12 3 -2 -5 21 -14 11 -57 -13 -57 -24 0 -34 43 -13 56 7 5 8 9 2 9 -6
0 -14 -3 -17 -7z"/>
<path d="M1190 63 c1 -32 2 -35 11 -20 10 18 12 18 32 0 14 -12 18 -13 10 -2
-9 11 -9 19 -2 26 16 16 2 33 -27 33 -21 0 -24 -4 -24 -37z m40 17 c0 -5 -7
-10 -15 -10 -8 0 -15 5 -15 10 0 6 7 10 15 10 8 0 15 -4 15 -10z"/>
<path d="M1270 65 c0 -19 4 -35 10 -35 5 0 7 7 4 15 -5 11 1 15 22 16 16 0 22
3 14 6 -44 14 -45 16 -20 23 l25 8 -27 1 c-25 1 -28 -2 -28 -34z"/>
<path d="M1350 65 c0 -19 5 -35 10 -35 6 0 10 16 10 35 0 19 -4 35 -10 35 -5
0 -10 -16 -10 -35z"/>
<path d="M1400 63 c0 -43 5 -41 13 5 4 18 2 32 -3 32 -6 0 -10 -16 -10 -37z"/>
<path d="M1449 70 c-7 -35 -4 -48 7 -38 3 4 4 21 2 40 l-3 33 -6 -35z"/>
<path d="M1481 93 c-2 -20 22 -64 32 -60 12 4 38 67 28 67 -4 0 -13 -15 -18
-32 l-10 -33 -16 35 c-8 19 -16 30 -16 23z"/>
<path d="M1560 65 c0 -19 4 -35 10 -35 5 0 7 7 4 15 -5 11 1 15 22 16 16 0 22
3 14 6 -44 14 -45 16 -20 23 l25 8 -27 1 c-25 1 -28 -2 -28 -34z"/>
<path d="M1640 63 c0 -43 5 -41 13 5 4 18 2 32 -3 32 -6 0 -10 -16 -10 -37z"/>
<path d="M1689 70 c-7 -35 -4 -48 7 -38 3 4 4 21 2 40 l-3 33 -6 -35z"/>
<path d="M1727 92 c6 -4 13 -21 16 -37 l4 -30 2 32 c0 21 7 33 19 36 9 3 1 5
-18 6 -19 0 -30 -3 -23 -7z"/>
<path d="M1844 65 c6 -19 13 -35 16 -35 3 0 10 16 16 35 9 29 9 33 -2 24 -10
-9 -18 -9 -28 0 -11 9 -11 5 -2 -24z"/>
<path d="M1906 84 c-16 -43 16 -74 55 -54 23 13 24 60 1 68 -11 3 -11 1 0 -17
11 -18 10 -23 -5 -38 -16 -16 -18 -16 -34 0 -15 14 -16 21 -5 37 7 11 8 20 3
20 -5 0 -12 -7 -15 -16z"/>
<path d="M2001 69 c-1 -25 4 -39 14 -43 29 -11 45 5 44 43 l-2 36 -6 -35 c-4
-22 -12 -35 -21 -35 -9 0 -17 13 -21 35 l-6 35 -2 -36z"/>
<path d="M2080 63 c1 -32 2 -35 11 -20 10 18 12 18 32 0 14 -12 18 -13 10 -2
-9 11 -9 19 -2 26 16 16 2 33 -27 33 -21 0 -24 -4 -24 -37z m45 17 c-8 -13
-35 -13 -35 0 0 6 9 10 21 10 11 0 17 -4 14 -10z"/>
<path d="M2165 90 c-9 -15 4 -30 26 -30 12 0 19 -5 16 -12 -2 -7 -15 -12 -28
-11 -20 2 -21 1 -7 -7 20 -12 48 -3 48 16 0 8 -12 19 -27 25 -22 8 -24 12 -13
19 9 6 10 10 3 10 -6 0 -15 -4 -18 -10z"/>
<path d="M2240 65 c0 -19 4 -35 10 -35 5 0 7 7 4 15 -5 11 1 15 22 16 16 0 22
3 14 6 -43 14 -44 16 -15 23 l30 8 -32 1 c-31 1 -33 -1 -33 -34z"/>
<path d="M2323 65 c0 -22 2 -30 4 -17 2 12 2 30 0 40 -3 9 -5 -1 -4 -23z"/>
<path d="M2381 63 c1 -21 3 -30 6 -21 2 9 14 19 26 21 l22 4 -22 2 c-13 0 -23
5 -23 10 0 5 10 12 23 14 19 4 18 4 -5 6 -26 1 -28 -2 -27 -36z"/>
<path d="M1420 71 c0 -5 5 -13 10 -16 6 -3 10 -2 10 4 0 5 -4 13 -10 16 -5 3
-10 2 -10 -4z"/>
<path d="M1660 71 c0 -5 5 -13 10 -16 6 -3 10 -2 10 4 0 5 -4 13 -10 16 -5 3
-10 2 -10 -4z"/>
</g>
</svg>
