<?xml version="1.0" standalone="no"?>
<!DOCTYPE svg PUBLIC "-//W3C//DTD SVG 20010904//EN"
 "http://www.w3.org/TR/2001/REC-SVG-20010904/DTD/svg10.dtd">
<svg version="1.0" xmlns="http://www.w3.org/2000/svg"
 width="400.000000pt" height="400.000000pt" viewBox="0 0 400.000000 400.000000"
 preserveAspectRatio="xMidYMid meet">

<g transform="translate(0.000000,400.000000) scale(0.100000,-0.100000)"
fill="#000000" stroke="none">
<path d="M1725 3438 c4 -18 18 -58 32 -88 14 -30 32 -75 40 -100 9 -25 48
-103 88 -175 40 -71 102 -184 138 -250 35 -66 85 -156 109 -200 25 -44 67
-120 93 -170 27 -49 58 -106 69 -126 22 -38 101 -181 143 -258 l24 -43 -25
-52 c-14 -28 -45 -87 -70 -131 -41 -75 -67 -123 -128 -235 -14 -25 -75 -137
-138 -250 -62 -113 -163 -297 -225 -410 -62 -113 -122 -222 -134 -243 -11 -21
-21 -39 -21 -41 0 -3 18 -7 40 -11 22 -4 48 -14 57 -23 15 -15 53 -17 318 -20
185 -2 312 1 328 7 44 17 90 88 200 306 22 44 44 81 49 83 4 2 8 7 8 12 0 5
21 46 48 92 26 46 56 102 66 126 11 23 22 42 26 42 4 0 17 24 31 53 13 28 27
54 32 55 4 2 7 10 7 17 0 8 7 21 16 29 8 9 13 16 10 16 -3 0 6 16 19 36 14 20
25 40 25 45 0 4 19 40 43 81 57 98 172 336 191 396 l7 22 -383 2 -383 3 348 2
c203 2 347 7 347 12 0 6 12 11 27 13 19 2 30 11 36 28 7 20 0 41 -39 110 -26
47 -63 114 -82 150 -19 36 -46 85 -60 110 -61 110 -281 511 -392 715 -18 33
-44 80 -58 105 -14 25 -43 77 -63 115 l-38 70 -391 3 -392 2 7 -32z"/>
<path d="M1081 3108 c11 -29 24 -57 28 -63 4 -5 20 -41 35 -80 28 -72 43 -103
79 -165 11 -19 34 -62 50 -95 16 -33 33 -62 37 -65 4 -3 31 -50 60 -105 28
-55 83 -156 121 -225 39 -69 87 -157 109 -197 l38 -71 -35 -69 c-31 -60 -79
-147 -313 -573 -32 -58 -69 -125 -82 -150 -14 -25 -53 -96 -88 -159 -64 -116
-66 -130 -19 -131 24 0 89 -29 89 -39 0 -4 92 -9 204 -10 253 -3 274 2 322 74
19 29 34 54 34 57 0 5 162 300 180 328 5 8 22 40 38 70 82 157 97 185 103 190
24 21 179 356 179 388 0 19 -5 22 -42 22 -49 0 -48 7 2 12 47 6 49 26 9 96
-18 31 -46 82 -62 112 -32 60 -60 112 -145 265 -30 55 -82 150 -115 210 -33
61 -85 155 -115 210 -30 55 -69 126 -86 157 l-31 58 -302 0 -303 0 21 -52z"/>
</g>
</svg>
